<svg xmlns="http://www.w3.org/2000/svg" xmlns:xlink="http://www.w3.org/1999/xlink" width="168" height="60" viewBox="0 0 168 60">
    <defs>
        <path id="a" d="M168 37.938v20.066A2.004 2.004 0 0 1 165.996 60H2.004A2 2 0 0 1 0 58.004V37.938a8.001 8.001 0 0 0 0-15.876V1.996C0 .894.904 0 2.004 0h163.992A2 2 0 0 1 168 1.996v20.066a8.001 8.001 0 0 0 0 15.876z"/>
    </defs>
    <g fill="none" fill-rule="evenodd">
        <use fill="#FF5000" fill-opacity=".04" xlink:href="#a"/>
        <path stroke="#FF5000" stroke-opacity=".3" d="M167.5 38.368v19.636c0 .823-.677 1.496-1.504 1.496H2.004A1.5 1.5 0 0 1 .5 58.004V38.368a8.503 8.503 0 0 0 0-16.736V1.996C.5 1.173 1.177.5 2.004.5h163.992a1.5 1.5 0 0 1 1.504 1.496v19.636a8.503 8.503 0 0 0 0 16.736z"/>
    </g>
</svg>
